<svg xmlns="http://www.w3.org/2000/svg" viewBox="0 0 32 32" shape-rendering="crispEdges">
  <rect width="32" height="32" fill="#0a0a0a"/>
  <!-- Horns -->
  <rect x="4" y="2" width="4" height="2" fill="#00ff41"/>
  <rect x="24" y="2" width="4" height="2" fill="#00ff41"/>
  <rect x="4" y="4" width="2" height="2" fill="#00ff41"/>
  <rect x="26" y="4" width="2" height="2" fill="#00ff41"/>
  <!-- Head top -->
  <rect x="6" y="4" width="20" height="2" fill="#00ff41"/>
  <rect x="4" y="6" width="24" height="2" fill="#00ff41"/>
  <rect x="2" y="8" width="28" height="2" fill="#00ff41"/>
  <!-- Head main -->
  <rect x="2" y="10" width="28" height="2" fill="#00ff41"/>
  <rect x="2" y="12" width="28" height="2" fill="#00ff41"/>
  <rect x="2" y="14" width="28" height="2" fill="#00ff41"/>
  <rect x="2" y="16" width="28" height="2" fill="#00ff41"/>
  <!-- Eyes -->
  <rect x="6" y="10" width="6" height="6" fill="#ff3300"/>
  <rect x="8" y="12" width="2" height="2" fill="#0a0a0a"/>
  <rect x="20" y="10" width="6" height="6" fill="#ff3300"/>
  <rect x="22" y="12" width="2" height="2" fill="#0a0a0a"/>
  <!-- Nostril dots -->
  <rect x="8" y="18" width="2" height="2" fill="#009900"/>
  <rect x="22" y="18" width="2" height="2" fill="#009900"/>
  <!-- Jaw -->
  <rect x="4" y="18" width="24" height="2" fill="#00ff41"/>
  <rect x="8" y="20" width="16" height="2" fill="#009900"/>
  <!-- Fire -->
  <rect x="10" y="22" width="12" height="2" fill="#ff6600"/>
  <rect x="12" y="24" width="8" height="2" fill="#ff6600"/>
  <rect x="14" y="26" width="4" height="2" fill="#ff6600"/>
  <rect x="12" y="28" width="8" height="2" fill="#ff3300"/>
  <rect x="14" y="30" width="4" height="2" fill="#ff3300"/>
  <style>
    @media (prefers-color-scheme: dark) {
      :root { color-scheme: dark; }
    }
  </style>
</svg>
