<svg xmlns="http://www.w3.org/2000/svg" viewBox="0 0 32 32" shape-rendering="crispEdges">
  <rect width="32" height="32" fill="#0d0b08"/>
  <rect x="4" y="2" width="4" height="2" fill="#e8b86d"/>
  <rect x="24" y="2" width="4" height="2" fill="#e8b86d"/>
  <rect x="4" y="4" width="2" height="2" fill="#e8b86d"/>
  <rect x="26" y="4" width="2" height="2" fill="#e8b86d"/>
  <rect x="6" y="4" width="20" height="2" fill="#e8b86d"/>
  <rect x="4" y="6" width="24" height="2" fill="#e8b86d"/>
  <rect x="2" y="8" width="28" height="2" fill="#e8b86d"/>
  <rect x="2" y="10" width="28" height="2" fill="#e8b86d"/>
  <rect x="2" y="12" width="28" height="2" fill="#e8b86d"/>
  <rect x="2" y="14" width="28" height="2" fill="#e8b86d"/>
  <rect x="2" y="16" width="28" height="2" fill="#e8b86d"/>
  <rect x="6" y="10" width="6" height="6" fill="#f4c842"/>
  <rect x="8" y="12" width="2" height="2" fill="#0d0b08"/>
  <rect x="20" y="10" width="6" height="6" fill="#f4c842"/>
  <rect x="22" y="12" width="2" height="2" fill="#0d0b08"/>
  <rect x="8" y="18" width="2" height="2" fill="#8a6a2a"/>
  <rect x="22" y="18" width="2" height="2" fill="#8a6a2a"/>
  <rect x="4" y="18" width="24" height="2" fill="#e8b86d"/>
  <rect x="8" y="20" width="16" height="2" fill="#8a6a2a"/>
  <rect x="10" y="22" width="12" height="2" fill="#d48a2a"/>
  <rect x="12" y="24" width="8" height="2" fill="#d48a2a"/>
  <rect x="14" y="26" width="4" height="2" fill="#d48a2a"/>
  <rect x="12" y="28" width="8" height="2" fill="#f4c842"/>
  <rect x="14" y="30" width="4" height="2" fill="#f4c842"/>
  <style>
    @media (prefers-color-scheme: dark) {
      :root { color-scheme: dark; }
    }
  </style>
</svg>
